<?xml version="1.0" encoding="utf-8"?>
<!-- Generator: Adobe Illustrator 24.0.1, SVG Export Plug-In . SVG Version: 6.00 Build 0)  -->
<svg version="1.1" id="Layer_1" xmlns="http://www.w3.org/2000/svg" xmlns:xlink="http://www.w3.org/1999/xlink" x="0px" y="0px"
	 viewBox="0 0 500 500" style="enable-background:new 0 0 500 500;" xml:space="preserve">
<style type="text/css">
	.st0{display:none;}
	.st1{display:inline;}
	.st2{clip-path:url(#SVGID_2_);fill:url(#SVGID_3_);}
	.st3{display:none;fill:#032442;}
	.st4{opacity:0.84;fill:url(#SVGID_4_);enable-background:new    ;}
	.st5{fill:#032442;}
	.st6{fill:#0B6060;}
	.st7{fill:#10949B;}
	.st8{fill:#6D431B;}
	.st9{fill:#B4763B;}
	.st10{opacity:0.38;}
	.st11{fill:#F2F2F2;}
	.st12{fill:#FFFFFF;}
	.st13{fill:#17CECE;}
	.st14{fill:#FFF7BB;}
</style>
<g id="BACKGROUND">
	<g class="st0">
		<g class="st1">
			<defs>
				<rect id="SVGID_1_" y="0" width="500" height="500"/>
			</defs>
			<clipPath id="SVGID_2_">
				<use xlink:href="#SVGID_1_"  style="overflow:visible;"/>
			</clipPath>
			
				<radialGradient id="SVGID_3_" cx="251" cy="247.39" r="292.7501" gradientTransform="matrix(1 0 0 -1 0 499.89)" gradientUnits="userSpaceOnUse">
				<stop  offset="0.6967" style="stop-color:#FFFFFF"/>
				<stop  offset="0.8659" style="stop-color:#F8F7F6"/>
				<stop  offset="1" style="stop-color:#F0EDEC"/>
			</radialGradient>
			<rect x="-42" y="-40" class="st2" width="586" height="585"/>
		</g>
	</g>
	<rect y="0" class="st3" width="500" height="500"/>
	
		<radialGradient id="SVGID_4_" cx="250" cy="249.89" r="190.1178" gradientTransform="matrix(1 0 0 -1 0 499.89)" gradientUnits="userSpaceOnUse">
		<stop  offset="0" style="stop-color:#FFFFFF;stop-opacity:0"/>
		<stop  offset="0.1645" style="stop-color:#BEBEBE;stop-opacity:3.290203e-02"/>
		<stop  offset="0.3292" style="stop-color:#858585;stop-opacity:6.584284e-02"/>
		<stop  offset="0.4891" style="stop-color:#555555;stop-opacity:9.781457e-02"/>
		<stop  offset="0.6399" style="stop-color:#303030;stop-opacity:0.128"/>
		<stop  offset="0.7795" style="stop-color:#161616;stop-opacity:0.1559"/>
		<stop  offset="0.9037" style="stop-color:#060606;stop-opacity:0.1807"/>
		<stop  offset="1" style="stop-color:#000000;stop-opacity:0.2"/>
	</radialGradient>
	<ellipse class="st4" cx="250" cy="250" rx="192.7" ry="187.5"/>
</g>
<g id="OBJECTS">
	<path class="st5" d="M150.7,126c0,0-12,13.6-12.9,2.4c-1-11.3,17.5-12.3,17.5-12.3c-0.5-2.7-8.5-10.6-8.5-10.6
		c-16.7-9.9-18.8,10.4-23.2,19.4c-4.3,9-6.8,3.1-6.8,3.1c-6.9-14.8,19.4-27.6,19.4-27.6c-8.9-7.5-15.8-4.5-15.8-4.5
		c-27.7,9.2-10.7,25.2-15.9,35.7c-5.2,10.5-7.4,2.5-7.4,2.5c-4.5-19.2,10.3-36.4,10.3-36.4c-8.6-6-17.7-1.1-17.7-1.1
		c-15.5,16-0.6,41.3-11.5,36.3c-10.8-5,4.4-32.2,4.4-32.2s-6.8-6.6-15.3,2.9s6.8,33-1.1,28.8s-10.7-21.8-10.7-21.8
		c-24.9,21.1,8.7,44.5,8.7,44.5l-0.1,0.1c0,0-17.3,33.7,16.2,43c0,0-7-16.8-2.2-23.6c4.7-6.7,3.7,20.1,16.4,25.3s15.2-3.3,15.2-3.3
		s-28.2-18.5-21.3-27.1c7-8.6,7.4,19.7,29.7,28c0,0,10.8,0.9,15.2-7.7c0,0-22.4-9.7-28.8-28.5c0,0-2.2-8,8-0.6s3.6,28.1,33.3,25.7
		c0,0,7.8,0,11.7-10c0,0-30.4-1.4-32.2-17.2c0,0-0.9-6.1,7.8,0.2s21.5,23.6,31.1,8.4c0,0,3-10,1.9-12.7c0,0-17,6.2-22.2-4.2
		s12.8-2.8,12.8-2.8s11.8,11.5,16.6-3.2l3.7-12.5h0.1l-10.1-9.8C155,111.2,150.7,126,150.7,126z"/>
	<g>
		<g>
			<path class="st6" d="M171.1,284.8c-5.7-12.3-30.8-19.2-30.8-19.2c-43.1-13-33.9-72.4-33.9-72.4l11.4,4.7l-9.2-7v-6.1
				c3-12.7,13.1-6.6,13.1-6.6c10-6.1,21.4,9.1,23.6,14.9c2.2,5.8,7,7.3,7,7.3l2.6,11.8V203c28.4,20.5,18.4,51.5,12.3,58.1
				c-6.1,6.6,0,15.2,0,15.2L171.1,284.8z"/>
		</g>
		<g>
			<path class="st7" d="M121.7,178.3c12.1,30.3,23.8,62.1,40.1,90.4c2.5,4.4,5.9,7.7,9,11.5c2.5,3.1,6.5,9.8,4.1,13.9
				c-2.6,4.5-8.1-13.5-9-15.5c-2.6-5.5-7.1-9.9-9.2-15.5C153.4,254.1,125.8,195.7,121.7,178.3z"/>
		</g>
		<g>
			<path class="st7" d="M126.3,177.9C126.2,177.9,126.3,177.7,126.3,177.9c0.1,0,0.1,0.1,0,0.1c-0.9,1.5-1.9,3-2.9,4.4"/>
		</g>
		<g>
			<path class="st7" d="M128.4,177.2c-0.2,2.8-1.5,5.5-3.5,7.4"/>
		</g>
		<g>
			<path class="st7" d="M132.3,178.8c0,4.2-1.8,8.4-4.9,11.2"/>
		</g>
		<g>
			<path class="st7" d="M136.2,181.1c-0.4,4.8-3.2,9.1-6.6,12.5"/>
		</g>
		<g>
			<path class="st7" d="M140,185c-0.4,2.2-1.6,4.1-2.9,5.9c-2,2.9-4.1,5.9-7.1,7.7"/>
		</g>
		<g>
			<path class="st7" d="M144.1,190.4c-2.4,5.4-5.7,10.8-11,13.5"/>
		</g>
		<g>
			<path class="st7" d="M146.9,196.6c-1.9,5.6-6.4,10.2-11.9,12.2"/>
		</g>
		<g>
			<path class="st7" d="M150.9,200.1c-1.1,3.3-2.4,6.5-4.6,9.2c-2.1,2.7-5.2,4.9-8.6,5.2"/>
		</g>
		<g>
			<path class="st7" d="M152.5,204c-0.6,3.6-1.7,7.2-3.6,10.3c-2,3.1-4.8,5.7-8.3,6.9"/>
		</g>
		<g>
			<path class="st7" d="M155,212.7c0.4,1.4,0.2,3-0.4,4.4c-0.6,1.4-1.5,2.6-2.5,3.8c-2.6,3.2-5.5,6.5-9.4,7.6"/>
		</g>
		<g>
			<path class="st7" d="M160.9,208.6c0.4,4.9,0.7,10-1.4,14.4c-2.4,5.2-7.6,8.4-12.6,11.3"/>
		</g>
		<g>
			<path class="st7" d="M166.8,215.1c-0.5,5.8-1.8,11.6-4.6,16.7c-2.8,5.1-7.2,9.4-12.7,11.3"/>
		</g>
		<g>
			<path class="st7" d="M170.5,221.2c0.6,4.6-1.3,9.1-3.5,13.2c-3.4,6.2-8.3,12.2-15.1,13.8"/>
		</g>
		<g>
			<path class="st7" d="M173.7,233.6c-0.8,6.5-5.7,11.8-10.5,16.3c-2.2,2.1-4.7,4.2-7.7,4.9"/>
		</g>
		<g>
			<path class="st7" d="M173.4,248.4c-2.9,2.6-5.5,5.4-7.9,8.4c-1.7,2.2-3.6,4.6-6.4,4.9"/>
		</g>
		<g>
			<path class="st7" d="M122.6,182.7c-0.8,0.3-1.7,0.3-2.5,0.2c-0.4-0.1-0.9-0.3-1.3-0.4c-1.7-0.8-3.3-2-4.4-3.6"/>
		</g>
		<g>
			<path class="st7" d="M123.8,184.9c-2.3,0.6-4.9,0.5-7.2-0.3c-2.3-0.8-4.3-2.4-5.6-4.4"/>
		</g>
		<g>
			<path class="st7" d="M126.1,190.7c-1.3-0.3-2.6,0.1-3.8,0.2c-4.7,0.5-9.2-2.4-11.7-6.3"/>
		</g>
		<g>
			<path class="st7" d="M127.4,194.2c-1.6,1.3-3.8,1.7-5.9,1.7c-1.3,0-2.7-0.1-3.9-0.8"/>
		</g>
		<g>
			<path class="st7" d="M128.9,198.6c-2,0.7-4.1,0.8-6.2,0.8c-0.4,0-0.9,0-1.3-0.1s-0.8-0.3-1.2-0.5c-0.7-0.4-1.5-0.7-2.2-1.1"/>
		</g>
		<g>
			<path class="st7" d="M130.9,204.9c-2,0.7-4.1,1.3-6.3,1.3c-1.1,0-2.3-0.2-3.4-0.4c-2.3-0.4-4.7-0.8-6.9-1.6
				c-2.2-0.8-4.4-2-5.9-3.8"/>
		</g>
		<g>
			<path class="st7" d="M132.9,209.1c-2.2,1-4.5,1.6-6.8,1.8c-4.5,0.3-8.9-1-13.2-2.3c-2.1-0.6-4.3-1.4-5.6-3.1"/>
		</g>
		<g>
			<path class="st7" d="M135.1,214.7c-3.9,2.7-8.9,3.1-13.7,3.1c-2.3,0-4.7-0.1-6.9-0.6c-2.2-0.6-4.4-1.8-5.8-3.6"/>
		</g>
		<g>
			<path class="st7" d="M138.9,222.1c-4.5,3.2-10.1,5-15.6,4.8c-5.5-0.2-11.1-2.3-15.1-6.2"/>
		</g>
		<g>
			<path class="st7" d="M141.8,228.9c-1.4,1.2-2.7,2.4-4.3,3.3c-1.4,0.8-3,1.4-4.6,1.8c-3.9,1.1-8,1.6-12,1.1s-8-1.9-11.1-4.5"/>
		</g>
		<g>
			<path class="st7" d="M144.5,236.2c-4.7,4-11,5.5-17.1,6.3c-4.3,0.5-8.8,0.7-12.6-1.3"/>
		</g>
		<g>
			<path class="st7" d="M148.5,243.8c-0.3,0.6-0.8,1.1-1.4,1.5c-7.3,5.3-17.2,6.2-26,4"/>
		</g>
		<g>
			<path class="st7" d="M150.6,249.2c-6.2,6.2-16,8.7-24.4,6.2"/>
		</g>
		<g>
			<path class="st7" d="M153.4,255.4c-4,4.1-10.1,6.2-15.8,5.4"/>
		</g>
		<g>
			<path class="st7" d="M156,262.1c-1.7,1.7-4.2,2.4-6.6,2.8c-2.1,0.4-4.3,0.6-6.5,0.5"/>
		</g>
	</g>
	<path class="st5" d="M337.6,172.8c0,0,4.7-19.4,10.8-9.1c6.1,10.3-10.4,21-10.4,21c1.7,2.4,12.7,5.6,12.7,5.6
		c19.9,0.6,12.5-19.9,12.3-30.8c-0.2-10.9,4.8-6.6,4.8-6.6c13.2,10.4-5,36.7-5,36.7c11.6,2.4,16.6-4.1,16.6-4.1
		c21.2-23.5-1.9-29.8-2-42.5c-0.1-12.8,5.7-6.4,5.7-6.4c13,16,7.4,40.3,7.4,40.3c10.6,1.2,16.8-8.3,16.8-8.3
		c6.8-23.5-18.6-39.8-6.3-40.8s10.9,33.2,10.9,33.2s9.3,2.7,12.7-10.9c3.5-13.6-21.5-27.9-12.4-28.1s20,15.2,20,15.2
		c13-33.4-28.7-38-28.7-38v-0.1c0,0,0.3-41.4-34.9-32.5c0,0,14.2,12.4,13,21.3s-12.8-17.2-26.8-15.4c-14.1,1.8-12.5,11.2-12.5,11.2
		s34.5,2.7,32.1,14.6s-16-15.1-40.4-11.1c0,0-10.3,4.9-10.3,15.5c0,0,25.1-2.7,39.7,12c0,0,5.8,6.4-7.1,4.8
		c-12.8-1.6-16.4-24.9-42.6-6.9c0,0-7.2,4.1-6.1,15.8c0,0,28.6-14.8,37.5-0.7c0,0,3.7,5.4-7.2,3.9c-10.9-1.4-30.7-11.1-32.5,8.5
		c0,0,1.9,11.2,4.1,13.1c0,0,12.7-14.9,22.4-7.8c9.6,7.2-10.4,9.5-10.4,9.5s-16.2-4.7-13.7,11.9l2.4,13.9l-0.1,0.1l13.9,4
		C340.5,189.1,337.6,172.8,337.6,172.8z"/>
	<g>
		<g>
			<polygon class="st8" points="261.5,285.1 256.3,284.6 266.2,146.2 271.5,146.8 			"/>
		</g>
		<g>
			<g>
				<polygon class="st8" points="199.6,152.4 202.1,154.1 337.9,161 335.5,158.3 				"/>
			</g>
			<g>
				<polygon class="st8" points="335.6,122.7 337.1,124.2 336.6,142.5 330,143.9 335,141 				"/>
			</g>
			<g>
				<polygon class="st8" points="335,144.1 336.5,144.2 336.3,153.7 333,153.5 336.1,159.4 334.5,159.3 326,152.6 329.8,148.7 				
					"/>
			</g>
			<g>
				<polygon class="st9" points="200.6,115.8 203.3,122 200.4,123.8 200.2,131.3 201.6,133.6 200,135.5 199.6,152.4 334.5,159.3 
					330.5,151.9 334.7,153 335,144.1 330,143.9 335,141 335.6,122.7 				"/>
			</g>
			<g class="st10">
				<g>
					<path class="st8" d="M223.8,116.5c-0.2,1.1-0.6,2-1.2,2.9c-0.3,0.4-0.8,0.9-1.3,1.2c-0.5,0.3-1.2,0.5-1.8,0.5
						c-1.2,0-2.1-0.6-3.1-0.7s-1.9,0.2-2.6,0.8c-0.8,0.6-1.5,1.3-2.6,1.8s-2.3,0.6-3.4,0.4c-1.1-0.2-2-0.4-3-0.7
						c-1-0.3-1.9-0.6-2.9-1.1v-0.2c2.1-0.4,4.1-0.3,6-0.1c0.9,0.1,1.8,0.1,2.5-0.1c0.8-0.2,1.7-0.7,2.8-1c1-0.3,2.1-0.5,3.2-0.5
						c1,0,2.1-0.1,2.9-0.3c0.4-0.1,0.7-0.2,1.1-0.4c0.3-0.2,0.7-0.4,1-0.7c0.7-0.6,1.4-1.3,2.2-2L223.8,116.5z"/>
				</g>
				<g>
					<path class="st8" d="M233.8,117.7c-0.7,1.5-2.1,2.7-3.8,3.3c-0.8,0.3-1.7,0.4-2.6,0.4c-0.8,0-1.5-0.1-2.2,0
						c-0.5,0.1-1.2,0.4-1.5,0.9c-0.2,0.3-0.2,0.5-0.2,0.9s0.1,0.8,0,1.3s-0.4,0.9-0.9,1.1c-0.4,0.2-0.9,0.3-1.4,0.3
						c-0.9-0.1-1.7-0.6-2.3-0.7c-1.4-0.3-2.8,0-4.3,0.4c-1.4,0.4-2.9,1.1-4.6,1.4c-3.3,0.6-6.9,0-9.6-1.9l0.1-0.2
						c3.2,0.7,6.2,0.7,9.1,0c1.4-0.3,2.9-0.9,4.6-1.2c0.8-0.2,1.7-0.3,2.6-0.2c0.9,0,1.8,0.3,2.6,0.7c0.8,0.4,1.4,0.9,2.1,1.1
						c0.6,0.2,1.4-0.2,1.5-0.8c0-0.3-0.1-0.6-0.2-1.1c-0.1-0.4-0.2-1,0-1.4c0.3-1,1.1-1.7,2.1-2.1c0.9-0.3,1.8-0.2,2.6-0.2
						c0.7,0,1.4,0,2.1-0.2c1.4-0.3,2.8-1,4-1.9L233.8,117.7z"/>
				</g>
				<g>
					<path class="st8" d="M244.5,117.9c0.5-0.1,1,0.4,1.2,0.9s0.2,1.1,0,1.7c-0.2,0.5-0.7,0.9-1.1,1.2c-0.4,0.3-0.9,0.5-1.4,0.6
						c-0.4,0.1-0.8,0.3-1.1,0.5s-0.5,0.3-0.7,0.6c-0.1,0.2-0.3,0.4-0.6,0.7c-0.2,0.1-0.4,0.2-0.6,0.3c-0.2,0.1-0.4,0.1-0.5,0.1
						c-0.3,0-0.3,0-0.3,0s-0.1,0.1-0.2,0.2c-0.2,0.2-0.4,0.6-0.8,1.1c-0.3,0.4-0.7,0.7-1.1,1c-0.8,0.6-1.7,0.9-2.7,1.1
						c-1.8,0.4-3.7,0.3-5.5,0.2l-5.3-0.1c-1.8,0-3.5,0.1-5.3,0.1c-3.5,0-7.1,0.2-10.7,0.3v-0.2c3.4-1.4,7-2,10.7-2.3
						c1.8-0.1,3.6,0,5.5,0.1c1.8,0.1,3.6,0.4,5.4,0.9c1.7,0.4,3.5,0.7,5.2,0.2c0.8-0.3,1.6-0.7,2.1-1.3c0.3-0.3,0.5-0.6,0.7-1
						c0.2-0.3,0.3-0.7,0.6-1.2c0.2-0.2,0.4-0.5,0.8-0.7c0.2-0.1,0.4-0.2,0.6-0.2c0.2,0,0.3,0,0.4,0c0.2,0,0.1,0,0.1,0
						s0.1-0.1,0.3-0.3c0.3-0.4,0.9-0.9,1.4-1.1s1-0.3,1.4-0.4c0.9-0.2,1.6-0.4,2-0.9c0.4-0.4,0.5-1.5-0.3-1.8L244.5,117.9z"/>
				</g>
				<g>
					<path class="st8" d="M251.1,118.5c0.6,0.2,0.9,1,0.9,1.6s-0.2,1.3-0.6,1.8c-0.2,0.3-0.5,0.5-0.8,0.7s-0.6,0.3-0.8,0.4
						c-0.6,0.2-1.1,0.4-1.6,0.6s-0.8,0.4-1.1,0.7c-0.3,0.3-0.7,0.8-1.1,1.2c-0.9,0.9-2.1,1.4-3.1,1.8c-2.2,0.8-4.5,1.1-6.7,1.5
						s-4.4,0.8-6.6,1.3c-1.1,0.2-2.2,0.5-3.5,0.5c-1.2,0-2.4-0.3-3.4-0.5c-2.1-0.5-4.2-0.4-6.3-0.2c-2.2,0.1-4.4,0.5-6.7,0.6
						s-4.6-0.1-6.8-0.9v-0.2c4.5,0.3,8.6-1.1,13.2-1.6c1.1-0.1,2.3-0.2,3.5-0.1s2.4,0.3,3.5,0.6s2.1,0.6,3.1,0.8
						c1,0.1,2.1,0.1,3.2,0c2.2-0.1,4.5-0.3,6.6-0.8c2.2-0.5,4.2-1.4,6.2-2.4c1-0.5,1.9-1,2.6-1.6c0.4-0.3,0.7-0.7,1.2-1.2
						s1.2-0.7,1.8-0.9c0.6-0.2,1.1-0.3,1.6-0.4c0.2-0.1,0.5-0.1,0.7-0.2s0.4-0.2,0.5-0.3c0.3-0.3,0.6-0.7,0.7-1.2
						c0.1-0.5,0.1-1-0.3-1.3L251.1,118.5z"/>
				</g>
				<g>
					<path class="st8" d="M259.2,118.9c0.5,0.5,0.8,1.3,0.6,2.1c-0.1,0.8-0.5,1.4-1,2c-0.3,0.3-0.5,0.5-0.9,0.8
						c-0.4,0.2-0.7,0.4-1,0.5c-0.6,0.3-1.3,0.5-1.8,0.8c-0.6,0.3-1,0.6-1.3,1c-0.3,0.3-0.5,0.9-1,1.7c-0.3,0.4-0.7,0.7-1.2,0.9
						c-0.4,0.2-0.9,0.2-1.3,0.3c-0.8,0.1-1.4,0-2,0c-1.3,0.1-2.6,0.3-3.8,0.7s-2.5,1-3.7,1.6c-2.5,1.3-5.3,1.8-8.1,1.6
						c-2.8-0.1-5.5-0.7-8.1-1.2s-5.2-0.5-7.8-0.3c-5.3,0.4-10.5,1.9-15.8,3.2l-0.1-0.2c4.9-2.4,10-4.5,15.7-5.1
						c2.8-0.3,5.7-0.1,8.4,0.6c2.7,0.6,5.3,1.4,7.9,1.9c1.3,0.2,2.6,0.3,4,0.2c1.3-0.2,2.6-0.6,3.7-1.2c1.2-0.6,2.3-1.4,3.6-2.1
						c1.3-0.6,2.6-1.1,4.1-1.3c0.7-0.1,1.5-0.1,2-0.2c0.6-0.1,0.9-0.2,1.2-0.5s0.5-1.1,1.2-1.7c0.6-0.6,1.3-1,2-1.3
						c1.4-0.6,2.7-0.7,3.6-1.5c0.5-0.4,0.9-0.9,1.1-1.4C259.6,120.2,259.7,119.6,259.2,118.9L259.2,118.9z"/>
				</g>
				<g>
					<path class="st8" d="M278.9,119.7c0.9,0.5,1.1,1.6,0.9,2.5c-0.2,1-0.9,1.8-1.7,2.3c-0.8,0.5-1.7,0.7-2.6,1
						c-0.9,0.2-1.7,0.4-2.6,0.6c-3.4,0.7-6.8,1.1-9.7,2.7c-0.4,0.2-0.7,0.4-1.1,0.6c-0.4,0.2-0.9,0.5-1.5,0.5
						c-1.1,0.1-1.8-0.1-2.4,0.2s-1.4,0.9-2.1,1.3c-0.8,0.4-1.6,0.9-2.4,1.1c-3.3,1.2-6.9,1.4-10.4,1.4c-3.5,0.1-6.9,0-10.3,0.3
						c-3.4,0.2-6.7,0.9-10.1,1.6c-3.4,0.6-6.9,1.3-10.4,1.4c-1.8,0.1-3.5,0-5.3-0.2c-1.8-0.3-3.5-0.8-5.1-1.4l0.1-0.2
						c1.7,0.4,3.4,0.6,5.1,0.6c1.7,0,3.4-0.1,5.1-0.3c3.4-0.5,6.7-1.2,10.1-1.9c3.4-0.7,6.9-1.3,10.4-1.4c3.5-0.1,7,0.2,10.5,0.5
						c3.4,0.3,7,0.4,10.1-0.9c0.8-0.3,1.5-0.8,2.2-1.2c0.3-0.3,0.7-0.5,1-0.8s0.7-0.6,1.1-0.9c1-0.5,2-0.4,2.7-0.6
						c0.6-0.1,1.2-0.7,2-1.2c1.6-1,3.3-1.6,5.1-1.9c1.7-0.4,3.5-0.6,5.2-0.8c1.7-0.3,3.5-0.4,4.9-1c0.7-0.3,1.3-0.8,1.6-1.5
						c0.3-0.7,0.2-1.6-0.4-2.2V119.7z"/>
				</g>
				<g>
					<path class="st8" d="M331.5,126.4c-5.6-0.8-11.2-1.4-16.9-1.7c-5.6-0.4-11.3-0.4-16.9-0.3s-11.3,0.3-16.9,1.2
						c-2.7,0.5-5.5,1.3-7.6,3.1c-0.5,0.5-1,1-1.4,1.5c-0.4,0.6-0.8,1.2-1.2,1.8c-0.8,1.2-1.9,2.3-3.3,3s-2.8,1-4.3,1.2
						c-1.4,0.2-2.9,0.3-4.3,0.4c-2.8,0.2-5.7,0.4-8.5,0.5c-5.7,0.2-11.4,0.2-17.1,0c-2.8-0.1-5.6,0-8.3,0.5s-5.5,1.1-8.4,1.6
						c-2.8,0.5-5.8,0.6-8.7,0c-1.4-0.3-2.8-0.6-4.1-0.5s-2.7,0.8-3.3,2l-0.2-0.1c0.5-1.4,1.9-2.3,3.4-2.6s3,0,4.4,0.1
						c2.8,0.4,5.5,0,8.2-0.6s5.5-1.4,8.3-2s5.8-0.7,8.7-0.7c5.7,0.1,11.3,0.3,17,0.2c2.8,0,5.7-0.1,8.5-0.2c2.8-0.1,5.7,0,8.2-1
						c1.2-0.5,2.2-1.4,3.1-2.5c0.8-1.1,1.7-2.3,2.8-3.3c2.3-1.9,5.2-2.7,7.9-3.2c5.6-1,11.2-1.8,16.9-2.2c5.7-0.3,11.4-0.2,17.1,0.4
						s11.3,1.6,16.8,3.1L331.5,126.4z"/>
				</g>
				<g>
					<path class="st8" d="M198.8,142c1.4-0.9,3-1.5,4.7-2c1.6-0.5,3.3-0.9,5-1.2c3.3-0.6,6.7-1.2,10-1.6c6.7-0.8,13.5-1.2,20.2-1.3
						s13.5,0.1,20.2,0.3c6.7,0.2,13.5,0.7,20.2,1.4s13.4,1.7,20,3c3.3,0.6,6.7,1.4,9.9,2.6c0.8,0.3,1.6,0.6,2.4,0.9
						c0.4,0.2,0.8,0.3,1.2,0.6c0.4,0.3,1,0.6,1.3,1.2c0.3,0.6,0.5,1.3,0.3,2s-0.6,1.2-1,1.6c-0.8,0.7-1.7,1.2-2.8,1.4
						c-7,1.3-13.8-0.2-20.4-0.2c-1.7,0-3.3,0-4.9,0.3c-0.8,0.1-1.6,0.3-2.4,0.4c-0.4,0.1-0.8,0.2-1.2,0.3c-0.4,0.1-0.8,0.2-1.1,0.4
						c-0.7,0.3-1.3,0.8-1.3,1.4c0,0.3,0.2,0.7,0.2,1.2c0.1,0.5-0.1,1.1-0.5,1.4c-0.7,0.7-1.7,0.9-2.6,0.8c-0.8-0.1-1.7-0.3-2.4-0.1
						l-0.1-0.2c0.8-0.4,1.7-0.2,2.6-0.2c0.8,0.1,1.6-0.2,2.1-0.7c0.2-0.3,0.3-0.6,0.2-0.9c-0.1-0.3-0.3-0.7-0.4-1.3
						c0-0.5,0.2-1.1,0.5-1.5s0.7-0.7,1.1-0.9s0.8-0.4,1.2-0.5c0.4-0.1,0.8-0.3,1.2-0.4c0.8-0.2,1.7-0.5,2.5-0.6
						c1.7-0.3,3.4-0.5,5.1-0.6c6.8-0.2,13.6,0.9,20-0.3c0.6-0.1,1.3-0.4,1.7-0.8c0.2-0.2,0.3-0.4,0.4-0.5c0-0.1,0-0.3-0.1-0.4
						c-0.1-0.3-0.8-0.6-1.6-0.9c-0.7-0.3-1.5-0.6-2.3-0.9c-3.1-1.2-6.3-2-9.6-2.7c-6.6-1.3-13.2-2.6-19.8-3.7
						c-6.6-1.1-13.3-1.8-20.1-1.8c-3.4,0-6.7,0.1-10.1,0.2c-3.4,0.1-6.7,0.3-10.1,0.5c-6.7,0.3-13.4,0.6-20.1,1.2
						c-3.3,0.3-6.7,0.6-10,1.1c-3.3,0.4-6.7,0.9-9.7,2.3L198.8,142z"/>
				</g>
				<g>
					<path class="st8" d="M224.4,149.5c-2,0.4-4,0.7-6.1,0.9c-0.6,0-1.2,0-1.9-0.3s-1.2-1.1-1.3-1.8s0-1.4,0.3-2
						c0.2-0.3,0.4-0.6,0.6-0.8c0.2-0.2,0.5-0.4,0.8-0.6c0.6-0.3,1.1-0.5,1.7-0.6c0.5-0.1,1-0.2,1.6-0.2c1-0.1,2.1-0.2,3.1-0.3
						c2.1-0.1,4.1-0.3,6.1-0.5l6.1-0.7c2-0.2,4.1-0.3,6.1-0.4c2-0.1,4.2-0.1,6.3,0.3c1.1,0.3,2.1,0.6,3.1,1.2c1,0.6,1.9,1.4,2.5,2.3
						l0.5,0.8l-0.7,0.4c-1.2,0.7-2.5,1.3-3.8,1.6c-1.3,0.4-2.7,0.6-4,0.6v-0.2c1.3-0.4,2.5-0.9,3.6-1.4c1.2-0.6,2.2-1.3,3.3-2
						l-0.2,1.2c-1.2-1.4-2.9-2.1-4.8-2.5c-0.9-0.2-1.9-0.3-2.9-0.4c-1-0.1-2-0.1-3-0.1c-2,0-4.1-0.1-6.1-0.2c-2-0.1-4.1-0.2-6.1-0.1
						c-2,0.1-4.1,0.4-6,0.8c-1,0.2-2,0.5-2.9,0.8c-1,0.3-2,0.5-2.6,0.9c-0.2,0.1-0.3,0.2-0.4,0.3c-0.1,0.1-0.2,0.2-0.3,0.4
						c-0.2,0.3-0.3,0.7-0.2,0.9c0,0.3,0.1,0.5,0.4,0.6c0.2,0.2,0.6,0.2,1.1,0.3c2,0,4.1,0.1,6.1,0.4L224.4,149.5z"/>
				</g>
				<g>
					<path class="st8" d="M247,150.7c1.5,0.2,2.9,0.4,4.3,0.3c1.4-0.1,2.8-0.6,3.8-1.4c0.5-0.4,0.9-0.9,1.2-1.6
						c0.2-0.3,0.4-0.7,0.7-1.1c0.3-0.4,0.8-0.6,1.3-0.8c1-0.2,1.8,0,2.6,0.2c0.7,0.2,1.4,0.4,2.1,0.5c2.8,0.6,5.7,0.8,8.5,0.6
						c1.4-0.1,2.5-0.5,3-1.5c0.2-0.5,0.3-1,0-1.4c-0.2-0.4-0.7-0.7-1-0.6l-3.8,1.8l3-2.8l1.5-1.4l0.3,0.9
						c-6.7-1.1-13.5-1.8-20.3-2.1c-3.4-0.2-6.8-0.3-10.2-0.4c-3.4-0.1-6.8-0.3-10.2-0.3c-6.7,0.1-13.3,1.4-19.9,2.9l-5,1.2
						c-1.5,0.3-3.1,1.1-2.7,2.3c0.2,0.6,0.8,1.1,1.4,1.6c0.7,0.5,1.4,0.9,2.1,1.3c1.5,0.8,3,1.4,4.7,1.9v0.2c-1.7-0.2-3.4-0.7-5-1.4
						c-0.8-0.3-1.6-0.7-2.3-1.2c-0.7-0.4-1.6-1-2-2c-0.2-0.5-0.2-1.1-0.1-1.7c0.2-0.6,0.5-1,0.9-1.4c0.8-0.7,1.7-1,2.6-1.2
						c1.6-0.5,3.3-1,4.9-1.4c6.6-1.8,13.4-3.3,20.4-3.1c3.5,0.1,6.9,0.3,10.3,0.6c3.4,0.3,6.8,0.7,10.2,1.1c6.8,0.8,13.6,1.5,20.4,2
						l1.1,0.1l-0.8,0.9l-1.4,1.6l-0.7-1c0.5-0.3,1.2-0.2,1.6,0c0.5,0.2,0.9,0.5,1.1,1c0.3,0.4,0.5,0.9,0.5,1.4s-0.1,1-0.3,1.4
						c-0.3,0.9-1,1.6-1.9,2c-0.8,0.4-1.7,0.6-2.4,0.6c-3.1,0.3-6.1-0.1-9-0.8c-1.5-0.3-2.9-1.1-3.9-0.9c-0.5,0.1-0.8,0.4-1.2,1
						c-0.4,0.7-0.9,1.4-1.6,1.8c-1.3,1-3,1.3-4.5,1.3c-1.5-0.1-3-0.5-4.4-0.9L247,150.7z"/>
				</g>
				<g>
					<path class="st8" d="M200.5,149.6c0.9,0.2,1.6,0.3,2.4,0.3c0.8,0.1,1.7,0.1,2.5,0.4c0.8,0.3,1.6,0.7,2.4,0.9
						c0.8,0.2,1.7,0.2,2.6,0.1c0.9-0.1,1.7-0.2,2.5-0.2s1.7-0.1,2.5-0.1c1.7,0,3.3,0.1,5.1,0.3v0.2c-1.5,1-3.3,1.5-5.1,1.7
						c-0.9,0.1-1.8,0-2.6-0.1c-0.9-0.1-1.7-0.3-2.6-0.6c-0.8-0.3-1.7-0.5-2.5-0.5c-0.9-0.1-1.8,0.1-2.6,0.1c-0.9,0-1.7-0.2-2.6-0.5
						c-0.8-0.3-1.8-0.8-2.2-1.7L200.5,149.6z"/>
				</g>
				<g>
					<path class="st8" d="M332.4,138.6c-1.4,0-2.8,0-4.2,0.1c-1.4,0.1-2.8,0.2-4.2,0.4c-1.4,0.2-2.8,0.3-3.9,0.8
						c-0.6,0.2-1.1,0.5-1.5,0.9s-0.5,0.8-0.5,1.3l-0.7-0.9c0.8,0.2,1.5,0.3,2.3,0.5l1,0.3l-0.4,0.9c-0.2,0.5-0.7,0.9-1.2,1.2
						c-0.5,0.2-1.2,0.2-1.7,0l1.1-0.8c0,0.2,0.1,0.5,0.3,0.7c0.2,0.2,0.5,0.4,0.8,0.6c0.7,0.3,1.5,0.5,2.4,0.9
						c0.8,0.4,1.6,0.8,2.3,1.3c0.4,0.3,0.7,0.5,1.1,0.8c0.3,0.3,0.7,0.6,0.9,1.1c0.2,0.5,0.2,1.1-0.1,1.5c-0.3,0.4-0.7,0.7-1.1,0.9
						s-0.9,0.3-1.3,0.4l-1.3,0.3c-1.7,0.4-3.4,0.7-5.1,1.1c-3.4,0.7-6.8,1.2-10.2,1.5c-1.7,0.2-3.4,0.3-5.2,0.4
						c-0.9,0.1-1.8,0.1-2.6,0.1c-0.4,0-0.7,0.1-0.9,0.2c-0.2,0.1-0.3,0.2-0.3,0.2l-0.7-1.4c1.6,0.5,3.2,0.8,4.9,1.3
						c1.6,0.4,3.3,0.8,4.9,1.1c3.3,0.8,6.6,1.4,9.9,2v0.2c-3.4,0-6.8-0.3-10.2-0.7c-1.7-0.2-3.4-0.5-5-0.8c-1.7-0.3-3.3-0.7-5-1.1
						l-1.2-0.3l0.5-1.2c0.3-0.7,1-1.2,1.5-1.4c0.6-0.2,1.1-0.3,1.6-0.3l2.6-0.1c1.7,0,3.4-0.1,5.1-0.2c3.4-0.2,6.8-0.4,10.2-0.8
						c1.7-0.2,3.4-0.4,5.1-0.6c0.8-0.2,1.7-0.2,2.4-0.6c0.4-0.2,0.7-0.4,0.8-0.7c0.2-0.3,0.2-0.6,0-1c-0.3-0.6-1.1-1.1-1.8-1.5
						c-0.7-0.4-1.5-0.7-2.3-1c-0.8-0.2-1.6-0.3-2.5-0.7c-0.4-0.2-0.9-0.4-1.3-0.8c-0.4-0.4-0.8-1-0.9-1.6l-0.1-1.1l1.3,0.3
						c0.1,0,0.2,0,0.4-0.1c0.1-0.1,0.2-0.2,0.3-0.3l0.6,1.2c-0.8-0.2-1.5-0.3-2.3-0.5l-0.7-0.1v-0.7c0-0.5,0.1-1,0.3-1.4
						c0.2-0.4,0.5-0.8,0.8-1.1c0.7-0.6,1.4-1,2.1-1.2c0.7-0.3,1.5-0.4,2.2-0.4c0.7-0.1,1.4-0.1,2.1-0.2c1.4-0.1,2.9,0,4.3,0.1
						s2.8,0.3,4.2,0.6L332.4,138.6z"/>
				</g>
				<g>
					<path class="st8" d="M325.5,131.6c-0.5-0.9-1.5-1.2-2.5-1.4l-3.1-0.6c-2.1-0.4-4.1-0.8-6.2-1.1c-2.1-0.4-4.2-0.9-6.3-0.9
						c-1.1,0-2.1,0-3.2,0.1c-1,0.1-2.1,0.3-2.9,0.8c-0.4,0.2-0.7,0.6-0.8,0.9c-0.1,0.3-0.1,0.7,0.1,1c0.3,0.7,0.9,1.2,1.8,1.4
						s2,0.3,3,0.4l3.2,0.3c4.2,0.5,8.4,0.7,12.7,0.9v0.2c-4.2,1-8.6,1.3-12.9,1c-1.1-0.1-2.2-0.2-3.2-0.4c-1.1-0.2-2.1-0.3-3.3-0.7
						c-0.6-0.2-1.2-0.5-1.7-0.9c-0.5-0.5-0.9-1.1-1.1-1.8s-0.2-1.5,0.2-2.1c0.4-0.6,1-1,1.5-1.2c1.1-0.5,2.3-0.5,3.3-0.5l3.2-0.1
						c2.2-0.1,4.3-0.2,6.5-0.1c2.2,0.2,4.3,0.6,6.4,1.3c1,0.3,2.1,0.7,3.1,1.1c0.5,0.2,1,0.5,1.5,0.8c0.5,0.4,0.8,0.9,0.9,1.5
						L325.5,131.6z"/>
				</g>
				<g>
					<path class="st8" d="M329.5,129.2c-4.6-1.5-9.3-2.5-14.1-3c-2.4-0.3-4.8-0.4-7.1-0.4c-2.4,0-4.8,0-7.2,0.3
						c-2.4,0.2-4.8,0.6-7.3,0.8c-0.6,0-1.2,0.1-1.8,0.1c-0.6,0-1.2,0-1.8,0c-0.6,0-1.1,0.1-1.6,0.4c-0.4,0.3-0.7,0.8-0.8,1.3
						c-0.1,0.5,0.1,1.1,0.3,1.6c0.2,0.5,0.6,0.9,1,1.2c0.9,0.7,2,1,3.1,1.5c2.3,0.8,4.5,1.7,6.8,2.6l0.9,0.3l-0.5,0.9l-0.7,1.3v-0.9
						c0.1,0.1,0.1,0.1,0.4,0.2c0.2,0,0.6,0,1,0l2.4-0.2l4.8-0.4c3.2-0.3,6.5-0.5,9.7-0.6c3.2-0.2,6.5-0.3,9.7-0.5s6.4-0.7,9.4-1.9
						l0.1,0.2c-1.4,0.8-2.9,1.5-4.5,2s-3.2,0.8-4.8,1.1c-3.2,0.5-6.5,0.8-9.7,1.1s-6.4,0.6-9.7,0.8l-4.8,0.3l-2.4,0.1
						c-0.4,0-0.9,0-1.5-0.1c-0.5-0.1-1.3-0.5-1.6-1.1l-0.2-0.5l0.2-0.4l0.7-1.2l0.4,1.2c-2.2-1-4.4-2-6.6-3c-1.1-0.5-2.3-1-3.3-1.9
						s-1.6-2.3-1.4-3.6c0.1-0.7,0.5-1.3,1.1-1.7c0.6-0.4,1.3-0.5,1.9-0.5c1.3,0,2.4,0,3.6-0.1c2.4-0.3,4.7-0.9,7.1-1.4
						s4.9-0.8,7.3-0.8c2.5,0,4.9,0.2,7.4,0.5c4.9,0.7,9.6,2.2,13.9,4.5L329.5,129.2z"/>
				</g>
			</g>
		</g>
		<g>
			<path class="st11" d="M234.1,134.2c-0.1,3.3-0.6,5.8-1.7,7.5c-1.1,1.7-2.6,2.6-4.5,2.5s-3.4-1.1-4.5-2.9
				c-1.1-1.8-1.6-4.4-1.5-7.7s0.7-5.9,1.9-7.7c1.2-1.8,2.7-2.7,4.7-2.6c1.2,0.1,2.2,0.4,3,1.1s1.4,1.6,1.8,2.8
				C233.9,129.2,234.2,131.6,234.1,134.2z M233.1,133.7c0.1-2.8-0.3-5-1.1-6.7s-2-2.6-3.6-2.6c-1.6-0.1-2.9,0.7-3.9,2.3
				c-1,1.6-1.5,3.9-1.6,7c-0.1,3.6,0.6,6.2,2,7.9c0.8,0.9,1.7,1.4,2.8,1.5c1.1,0,1.9-0.2,2.6-0.7c0.7-0.5,1.2-1.2,1.6-2.1
				C232.7,138.6,233.1,136.4,233.1,133.7z"/>
			<path class="st11" d="M249.4,137.1c0,1.3-0.2,2.5-0.4,3.5c-0.3,1-0.6,1.8-0.9,2.3c-0.4,0.5-0.8,1-1.3,1.3
				c-1.3,0.8-2.6,0.9-4.1,0.4c-0.5-0.2-1-0.5-1.6-1s-1-1.3-1.3-2.3s-0.5-2.3-0.4-3.7c0.1-2.4,0.5-4.3,1.5-5.8
				c0.9-1.5,2.2-2.2,3.8-2.1c1.7,0.1,2.9,0.8,3.7,2.3C249,133.5,249.4,135.2,249.4,137.1z M243.9,143.9h0.3h0.3
				c2.5-0.1,3.8-2.4,3.9-6.6c0-1.8-0.3-3.3-0.9-4.5c-0.6-1.2-1.7-1.9-3.1-1.9c-0.9,0-1.7,0.3-2.4,0.9c-1.1,1.2-1.7,3.1-1.8,5.7v0.2
				c0,1.6,0.2,3,0.8,4.2C241.7,143,242.6,143.7,243.9,143.9z"/>
			<path class="st11" d="M264.5,137.8c0,1.3-0.2,2.5-0.4,3.5c-0.3,1-0.6,1.8-0.9,2.3c-0.4,0.5-0.8,1-1.3,1.3
				c-1.3,0.8-2.6,0.9-4.1,0.4c-0.5-0.2-1-0.5-1.6-1s-1-1.3-1.3-2.3s-0.5-2.3-0.4-3.7c0.1-2.4,0.5-4.3,1.5-5.8
				c0.9-1.5,2.2-2.2,3.8-2.1c1.7,0.1,2.9,0.8,3.7,2.3C264.1,134.1,264.5,135.8,264.5,137.8z M258.9,144.5h0.3h0.3
				c2.5-0.1,3.8-2.4,3.9-6.6c0-1.8-0.3-3.3-0.9-4.5s-1.7-1.9-3.1-1.9c-0.9,0-1.7,0.3-2.4,0.9c-1.1,1.2-1.7,3.1-1.8,5.7v0.2
				c0,1.6,0.2,3,0.8,4.2C256.8,143.7,257.7,144.4,258.9,144.5z"/>
			<path class="st11" d="M270.8,153.6h-1l0.5-22.3h1v1.8c1.2-1.4,2.5-2,3.9-1.9c0.7,0,1.5,0.4,2.3,1c1.6,1.3,2.3,3.5,2.3,6.5
				c-0.1,3.5-1.4,5.8-3.8,6.8c-1.3,0.5-2.9,0.7-4.9,0.7L270.8,153.6z M278,141.9c0.4-0.9,0.6-2.1,0.7-3.6c0-1.5-0.3-2.9-1-4.1
				c-0.7-1.3-1.6-1.9-2.7-2c-0.7,0-1.3,0.2-1.9,0.6c-0.6,0.4-1.2,1-1.8,1.7L271,145C274.7,145.2,277,144.1,278,141.9z"/>
			<path class="st11" d="M289.8,145.4c1.1-0.3,1.9-0.6,2.3-1.1s0.7-1.1,0.7-2c0-0.8-0.3-1.5-0.8-2c-0.6-0.5-1.3-0.8-2.1-1
				c-0.8-0.2-1.7-0.4-2.5-0.6c-0.8-0.2-1.5-0.6-2.1-1.2c-0.6-0.6-0.8-1.4-0.8-2.5c0.1-2.3,1.7-3.4,5-3.2c1.2,0.1,2.6,0.3,4.2,0.6
				v1.2c-1.6-0.4-3-0.6-4.1-0.7c-1.1-0.1-2.1,0.1-2.8,0.4c-0.8,0.3-1.2,0.9-1.2,1.7s0.3,1.5,0.8,1.9c0.6,0.5,1.3,0.8,2.1,1
				c0.8,0.2,1.7,0.4,2.5,0.7s1.5,0.7,2.1,1.4s0.8,1.6,0.8,2.8c0,1.4-0.6,2.5-1.6,3.1c-0.5,0.3-1,0.5-1.5,0.7s-1.1,0.3-1.9,0.3
				c-1.2,0.1-2.4,0.1-3.6,0h-0.7v-1.1C287,145.8,288.7,145.7,289.8,145.4z"/>
			<path class="st11" d="M300.9,147.5l-2.1-0.1l0.1-2.8l2.1,0.1L300.9,147.5z"/>
			<path class="st11" d="M308.6,147.8l-2.1-0.1l0.1-2.8l2.1,0.1L308.6,147.8z"/>
			<path class="st11" d="M316.3,148.2l-2.1-0.1l0.1-2.8l2.1,0.1L316.3,148.2z"/>
		</g>
	</g>
	<path class="st5" d="M146.3,284.4c0,0-19.3,0.9-11.4-7.6c7.9-8.5,22.4,4,22.4,4c1.8-2.2,1.8-13.3,1.8-13.3
		c-4.8-18.7-21.9-6.2-32-3.1s-7.5-2.7-7.5-2.7c6.1-15.1,35.5-5.2,35.5-5.2c-0.9-11.5-8.3-14.3-8.3-14.3c-27.6-13.3-27.2,9.8-39,13.3
		c-11.8,3.5-7.5-3.6-7.5-3.6c11.4-16.5,35.5-17.8,35.5-17.8c-1.8-10.2-12.3-13.3-12.3-13.3c-23.7,0-32,28-36.2,16.9
		s27.9-19.1,27.9-19.1s0-9.3-13.6-8.9c-13.6,0.4-20.2,27.6-22.8,19.1s8.8-22.7,8.8-22.7C53,202.9,60,243,60,243h-0.1
		c0,0-38.6,10.9-20.8,41.3c0,0,7.7-16.6,16.4-17.8c8.6-1.3-12.6,16.5-7.1,29.1s13.8,8.6,13.8,8.6s-6.8-32.9,4.9-33.8
		s-9.6,18.8,0.7,40.5c0,0,7.3,8.3,17.2,5.4c0,0-9.3-22.6,0.4-40.2c0,0,4.4-7.1,6.4,5.3s-18.8,22,5.1,41.5c0,0,5.8,5.6,16.3,1.4
		c0,0-21.5-22.6-10.7-34.7c0,0,4-4.9,5.6,5.7s-2.1,31.6,16.6,27.9c0,0,9.9-4.8,11.1-7.4c0,0-17.3-7.8-13.2-18.7
		c4.1-10.9,11.7,7.1,11.7,7.1s-0.1,16.3,14.8,9.6l12.3-6l0.1,0.1v-14C160.8,277.2,146.3,284.4,146.3,284.4z"/>
	<path class="st5" d="M333.8,320.1c0,0,14.1-15.5,14.5-2.9c0.4,12.5-20.2,14.1-20.2,14.1c0.4,3.1,8.9,11.6,8.9,11.6
		c18,10.6,21.6-12,26.9-22.2c5.3-10.1,7.8-3.7,7.8-3.7c6.9,16.3-23.2,31.3-23.2,31.3c9.5,8.1,17.4,4.6,17.4,4.6
		c31.4-11,13.3-28.4,19.7-40.2s8.4-3,8.4-3c3.9,21.4-13.6,40.9-13.6,40.9c9.2,6.5,19.7,0.8,19.7,0.8c18.2-18.2,3.1-46.1,14.8-40.8
		c11.8,5.3-6.7,36.1-6.7,36.1s7.2,7.2,17.3-3.6c10.1-10.8-5.7-36.6,2.8-32.2c8.5,4.5,10.7,24.1,10.7,24.1c29-24.2-7.1-49.5-7.1-49.5
		l0.1-0.1c0,0,21.2-38-15.7-47.6c0,0,6.8,18.6,1.1,26.2c-5.7,7.6-3-22.3-16.9-27.8s-17.2,4-17.2,4s30.4,20,22.2,29.7
		c-8.3,9.7-7.1-21.8-31.6-30.5c0,0-12-0.7-17.4,9c0,0,24.5,10.3,30.5,31.2c0,0,2,8.8-8.9,0.9c-11-8-2.5-31.3-35.7-27.9
		c0,0-8.7,0.2-13.6,11.5c0,0,33.8,0.8,34.9,18.4c0,0,0.7,6.8-8.6,0c-9.3-6.9-22.7-25.8-34.2-8.7c0,0-3.9,11.3-2.8,14.2
		c0,0,19.3-7.3,24.5,4.2s-14.4,3.5-14.4,3.5s-12.5-12.6-18.7,4l-4.8,14.1h-0.2l10.8,10.8C328.2,336.7,333.8,320.1,333.8,320.1z"/>
	<g>
		<path class="st12" d="M116.1,321.1h-9.5v20h4.2v-6.9h5c2.3,0,4.1-0.6,5.3-1.7c1.2-1.2,1.8-2.8,1.8-4.8c0-2.1-0.6-3.7-1.7-4.8
			C120,321.7,118.4,321.1,116.1,321.1z M117.8,329.8c-0.5,0.5-1.2,0.8-2.1,0.8h-4.9v-5.9h4.9c0.9,0,1.6,0.3,2.1,0.8
			c0.5,0.5,0.7,1.2,0.7,2.2C118.6,328.6,118.3,329.3,117.8,329.8z"/>
		<path class="st12" d="M131.8,321.1l-7.8,20h4.4l1.4-3.8h9.1l1.4,3.8h4.6l-7.8-20H131.8z M131.1,333.7l1.9-5.1
			c0.2-0.6,0.6-1.9,1.3-3.9h0.1c0.6,2,1,3.3,1.3,3.9l1.9,5.1H131.1z"/>
		<path class="st12" d="M154,325.9c1-1.1,2.5-1.6,4.6-1.6c1.3,0,2.5,0.3,3.4,1c1,0.7,1.4,1.5,1.4,2.6h4.4c0-1.6-0.4-2.9-1.3-3.9
			s-2-1.9-3.4-2.4c-1.4-0.5-3-0.8-4.7-0.8c-3.3,0-5.8,0.9-7.6,2.6c-1.8,1.7-2.7,4.3-2.7,7.7c0,3.5,0.8,6.1,2.5,7.8s4.1,2.5,7.1,2.5
			c1.5,0,2.7-0.2,3.8-0.6c1-0.4,2-1.1,2.9-2l0.4,2.2h2.9v-10.9h-10.3v3.5h6.1c0,1.3-0.5,2.3-1.6,3c-1,0.7-2.3,1.1-3.9,1.1
			c-1.9,0-3.3-0.5-4.2-1.6c-0.9-1-1.4-2.6-1.4-4.8v-0.9C152.5,328.6,153,327,154,325.9z"/>
		<polygon class="st12" points="177.7,332.6 187.9,332.6 187.9,329.1 177.7,329.1 177.7,324.7 189.2,324.7 189.2,321.1 173.5,321.1 
			173.5,341.1 189.3,341.1 189.3,337.5 177.7,337.5 		"/>
		<path class="st12" d="M218,332.1l0.1,1.7l-0.1,0.1c-0.5-1-0.9-1.6-1.2-2l-7.7-10.9h-4.1v20h4.1v-11c0-0.3,0-0.9-0.1-1.7l0.1-0.1
			c0.4,0.8,0.8,1.4,1.1,1.9l7.7,10.9h4.1v-20H218V332.1z"/>
		<path class="st12" d="M237.3,320.7c-3.2,0-5.7,0.9-7.5,2.6s-2.6,4.3-2.6,7.8c0,3.5,0.9,6,2.6,7.8c1.8,1.7,4.3,2.6,7.5,2.6
			c3.2,0,5.7-0.9,7.5-2.6c1.8-1.7,2.6-4.3,2.6-7.8c0-3.5-0.9-6-2.6-7.8S240.5,320.7,237.3,320.7z M243.1,331.5c0,2-0.5,3.6-1.5,4.7
			c-1,1.1-2.4,1.6-4.3,1.6c-1.9,0-3.3-0.5-4.3-1.6c-1-1.1-1.5-2.7-1.5-4.7v-0.9c0-2,0.5-3.6,1.5-4.7c1-1.1,2.4-1.6,4.3-1.6
			c1.9,0,3.3,0.5,4.3,1.6c1,1.1,1.5,2.7,1.5,4.7V331.5z"/>
		<polygon class="st12" points="251.2,324.7 257.4,324.7 257.4,341.1 261.6,341.1 261.6,324.7 267.8,324.7 267.8,321.1 251.2,321.1 
					"/>
		<polygon class="st12" points="282.4,341.1 286.6,341.1 286.6,333.2 295.8,333.2 295.8,329.6 286.6,329.6 286.6,324.7 296.9,324.7 
			296.9,321.1 282.4,321.1 		"/>
		<path class="st12" d="M311.5,320.7c-3.2,0-5.7,0.9-7.5,2.6c-1.8,1.7-2.6,4.3-2.6,7.8c0,3.5,0.9,6,2.6,7.8c1.8,1.7,4.3,2.6,7.5,2.6
			c3.2,0,5.7-0.9,7.5-2.6c1.8-1.7,2.6-4.3,2.6-7.8c0-3.5-0.9-6-2.6-7.8C317.3,321.6,314.8,320.7,311.5,320.7z M317.3,331.5
			c0,2-0.5,3.6-1.5,4.7c-1,1.1-2.4,1.6-4.3,1.6c-1.9,0-3.3-0.5-4.3-1.6c-1-1.1-1.5-2.7-1.5-4.7v-0.9c0-2,0.5-3.6,1.5-4.7
			c1-1.1,2.4-1.6,4.3-1.6c1.9,0,3.3,0.5,4.3,1.6c1,1.1,1.5,2.7,1.5,4.7V331.5z"/>
		<path class="st12" d="M339.7,333.4c0,1.4-0.4,2.5-1.1,3.3c-0.8,0.7-1.8,1.1-3.2,1.1c-1.4,0-2.4-0.4-3.2-1.1
			c-0.7-0.7-1.1-1.8-1.1-3.3v-12.3h-4.2v12.5c0,2.5,0.7,4.5,2.2,5.8c1.5,1.3,3.6,2,6.3,2c2.7,0,4.8-0.7,6.3-2
			c1.5-1.3,2.3-3.3,2.3-5.8v-12.5h-4.2V333.4z"/>
		<path class="st12" d="M362.8,332.1l0.1,1.7l-0.1,0.1c-0.5-1-0.9-1.6-1.2-2l-7.7-10.9h-4.1v20h4.1v-11c0-0.3,0-0.9-0.1-1.7l0.1-0.1
			c0.4,0.8,0.8,1.4,1.1,1.9l7.7,10.9h4.1v-20h-4.1V332.1z"/>
		<path class="st12" d="M388.1,323.6c-1.7-1.7-4-2.5-7.1-2.5h-8.3v20h8.3c3,0,5.4-0.8,7.1-2.5s2.5-4.2,2.5-7.5
			C390.6,327.7,389.8,325.2,388.1,323.6z M386.3,331.5c0,1.9-0.4,3.4-1.3,4.4c-0.9,1-2.2,1.6-3.9,1.6h-4v-12.8h4
			c1.7,0,3,0.5,3.9,1.6c0.9,1,1.3,2.5,1.3,4.4V331.5z"/>
	</g>
	<g>
		<g>
			<path class="st6" d="M344.7,285.3c3.1-11,23-20.1,23-20.1c34.1-16.7,18.3-64.8,18.3-64.8l-8.8,5.5l6.7-7.1l-0.8-5.1
				c-4.3-10.1-11.8-3.7-11.8-3.7c-9.2-3.7-16.6,10.5-17.6,15.6s-4.8,7.1-4.8,7.1l-0.6,10.2l-1.2-7.6c-20.8,20.9-8.3,45.3-2.3,50
				c6,4.6,2.1,12.6,2.1,12.6L344.7,285.3z"/>
		</g>
		<g>
			<path class="st7" d="M371.2,190c-6,26.9-11.3,54.8-21,80.6c-1.5,4-3.8,7.2-5.9,10.8c-1.7,2.9-4.1,9-1.5,12.1
				c2.8,3.4,4.9-12.3,5.4-14.1c1.4-4.9,4.5-9.2,5.5-14.2C355.2,257.4,370.1,205,371.2,190z"/>
		</g>
		<g>
			<path class="st7" d="M367.3,190.2C367.3,190.2,367.2,190.1,367.3,190.2c-0.1,0-0.1,0.1,0,0.1c0.9,1.1,2,2.2,3,3.2"/>
		</g>
		<g>
			<path class="st7" d="M365.4,190c0.5,2.3,2,4.4,3.9,5.7"/>
		</g>
		<g>
			<path class="st7" d="M362.4,191.8c0.6,3.5,2.7,6.7,5.6,8.7"/>
		</g>
		<g>
			<path class="st7" d="M359.4,194.3c1,3.9,3.9,7.2,7.2,9.5"/>
		</g>
		<g>
			<path class="st7" d="M356.9,198.1c0.6,1.7,1.9,3.2,3.2,4.5c2,2.2,4.2,4.3,6.9,5.4"/>
		</g>
		<g>
			<path class="st7" d="M354.1,203.1c2.7,4.2,6.2,8.2,11,9.7"/>
		</g>
		<g>
			<path class="st7" d="M352.7,208.7c2.3,4.4,6.7,7.6,11.6,8.5"/>
		</g>
		<g>
			<path class="st7" d="M349.8,212.1c1.4,2.6,2.9,5.1,5.1,7.1c2.1,2,5,3.3,7.9,3.2"/>
		</g>
		<g>
			<path class="st7" d="M349,215.6c1,2.9,2.4,5.7,4.4,8c2.1,2.3,4.8,4.1,7.8,4.6"/>
		</g>
		<g>
			<path class="st7" d="M348.1,223.1c-0.2,1.3,0.3,2.6,1,3.6c0.7,1.1,1.6,2,2.6,2.8c2.6,2.3,5.4,4.7,8.9,5"/>
		</g>
		<g>
			<path class="st7" d="M342.7,220.5c0.4,4.1,0.8,8.4,3.1,11.8c2.7,4,7.5,5.9,12,7.7"/>
		</g>
		<g>
			<path class="st7" d="M338.7,226.7c1.2,4.7,3.1,9.4,6.1,13.3c3,3.9,7.3,6.9,12.1,7.7"/>
		</g>
		<g>
			<path class="st7" d="M336.5,232.3c0.1,3.9,2.3,7.4,4.7,10.5c3.7,4.7,8.5,9,14.4,9.4"/>
		</g>
		<g>
			<path class="st7" d="M335.5,243c1.6,5.3,6.3,9,11,12.1c2.1,1.4,4.5,2.9,7,3"/>
		</g>
		<g>
			<path class="st7" d="M337.8,255.3c2.7,1.7,5.3,3.7,7.7,5.9c1.7,1.6,3.6,3.4,6,3.2"/>
		</g>
		<g>
			<path class="st7" d="M371,193.7c0.7,0.1,1.5,0.1,2.1-0.2c0.4-0.1,0.7-0.3,1-0.5c1.3-0.9,2.4-2.1,3.2-3.6"/>
		</g>
		<g>
			<path class="st7" d="M370.3,195.7c2,0.2,4.1-0.2,5.9-1.2s3.2-2.6,4.1-4.5"/>
		</g>
		<g>
			<path class="st7" d="M369.2,200.9c1-0.4,2.1-0.3,3.2-0.3c3.9-0.2,7.4-3.2,8.9-6.9"/>
		</g>
		<g>
			<path class="st7" d="M368.6,204c1.5,0.9,3.4,0.9,5.1,0.6c1.1-0.2,2.3-0.5,3.1-1.2"/>
		</g>
		<g>
			<path class="st7" d="M367.9,207.9c1.7,0.4,3.5,0.1,5.3-0.2c0.4-0.1,0.7-0.1,1.1-0.3c0.3-0.1,0.6-0.4,0.9-0.6
				c0.6-0.4,1.1-0.8,1.7-1.2"/>
		</g>
		<g>
			<path class="st7" d="M367.1,213.4c1.8,0.3,3.6,0.5,5.4,0.2c0.9-0.2,1.9-0.5,2.8-0.8c1.9-0.6,3.8-1.3,5.5-2.3s3.3-2.3,4.4-4"/>
		</g>
		<g>
			<path class="st7" d="M366,217.1c1.9,0.5,3.9,0.7,5.9,0.6c3.8-0.3,7.3-2,10.7-3.7c1.6-0.8,3.4-1.7,4.2-3.3"/>
		</g>
		<g>
			<path class="st7" d="M365,222c3.6,1.7,7.8,1.3,11.8,0.7c1.9-0.3,3.9-0.7,5.7-1.5c1.8-0.8,3.4-2.1,4.3-3.8"/>
		</g>
		<g>
			<path class="st7" d="M362.8,228.7c4.2,2,9.1,2.8,13.7,1.9c4.6-0.9,8.9-3.4,11.7-7.2"/>
		</g>
		<g>
			<path class="st7" d="M361.4,234.8c1.3,0.8,2.6,1.6,4,2.2c1.3,0.5,2.7,0.7,4.1,0.9c3.4,0.4,6.9,0.2,10.1-0.7
				c3.3-0.9,6.4-2.7,8.6-5.2"/>
		</g>
		<g>
			<path class="st7" d="M360.1,241.2c4.4,2.7,9.9,3.1,15.1,2.9c3.6-0.1,7.4-0.6,10.3-2.8"/>
		</g>
		<g>
			<path class="st7" d="M357.9,248.1c0.3,0.5,0.8,0.8,1.4,1.1c6.8,3.4,15.2,2.8,22.2-0.3"/>
		</g>
		<g>
			<path class="st7" d="M356.8,252.9c6,4.3,14.5,5,21.2,1.8"/>
		</g>
		<g>
			<path class="st7" d="M355.3,258.5c3.9,2.9,9.2,3.8,13.9,2.3"/>
		</g>
		<g>
			<path class="st7" d="M354,264.3c1.7,1.2,3.8,1.4,5.8,1.5c1.8,0,3.7-0.1,5.5-0.4"/>
		</g>
	</g>
	<g>
		<path class="st13" d="M247.3,281.9c0,0,16.1,27.6,46.2,4c0,0-28.1,16.4-43-6.2L247.3,281.9z"/>
		<g>
			<g>
				<path class="st6" d="M254.1,293.2c4.1-1.7,11.7,2.2,11.7,2.2c13.3,6.4,24.3-10,24.3-10l-3.8-1.4l3.8,0.4l1.4-1.5
					c2.1-3.7-1.7-4.5-1.7-4.5c-1.1-3.7-7.2-2.5-9-1.6s-3.3,0.2-3.3,0.2l-3.3,2.3l2-2.2c-11.4-1.4-15.9,8.4-15.9,11.3
					s-3.4,3.7-3.4,3.7L254.1,293.2z"/>
			</g>
			<g>
				<path class="st7" d="M289.7,278.4c-9.7,4.6-19.5,9.7-29.8,12.9c-1.6,0.5-3.1,0.5-4.7,0.8c-1.3,0.2-3.7,0.9-4.1,2.4
					c-0.4,1.7,4.9-1.5,5.6-1.7c1.8-0.7,3.9-0.8,5.7-1.7C265.2,289.7,284.9,281.7,289.7,278.4z"/>
			</g>
			<g>
				<path class="st7" d="M288.7,277.3L288.7,277.3L288.7,277.3c-0.2,0.6-0.3,1.2-0.3,1.7"/>
			</g>
			<g>
				<path class="st7" d="M288.3,276.7c-0.6,0.7-0.9,1.7-0.8,2.6"/>
			</g>
			<g>
				<path class="st7" d="M287,276.2c-0.9,1-1.4,2.4-1.3,3.8"/>
			</g>
			<g>
				<path class="st7" d="M285.6,275.9c-1,1.2-1.3,2.9-1.2,4.5"/>
			</g>
			<g>
				<path class="st7" d="M283.8,276c-0.4,0.6-0.5,1.3-0.6,2.1c-0.2,1.1-0.3,2.3,0,3.4"/>
			</g>
			<g>
				<path class="st7" d="M281.6,276.4c-0.6,1.8-1,3.9-0.3,5.7"/>
			</g>
			<g>
				<path class="st7" d="M279.5,277.3c-0.8,1.8-0.7,3.9,0.2,5.6"/>
			</g>
			<g>
				<path class="st7" d="M277.8,277.2c-0.4,1-0.9,2.1-0.9,3.3c-0.1,1.1,0.2,2.3,0.9,3.2"/>
			</g>
			<g>
				<path class="st7" d="M276.6,277.8c-0.7,1-1.2,2.1-1.4,3.3c-0.2,1.2-0.1,2.4,0.5,3.5"/>
			</g>
			<g>
				<path class="st7" d="M274,279.3c-0.4,0.3-0.7,0.7-0.9,1.2c-0.2,0.5-0.2,1-0.2,1.5c-0.1,1.3-0.1,2.8,0.6,3.9"/>
			</g>
			<g>
				<path class="st7" d="M273.5,277.1c-1.2,1.1-2.4,2.3-2.9,3.8c-0.6,1.8,0,3.7,0.5,5.5"/>
			</g>
			<g>
				<path class="st7" d="M270.7,277.3c-1.2,1.5-2.1,3.2-2.6,5c-0.5,1.9-0.4,3.9,0.6,5.6"/>
			</g>
			<g>
				<path class="st7" d="M268.4,278c-1.2,1-1.7,2.5-2.1,4c-0.5,2.2-0.7,4.8,0.6,6.7"/>
			</g>
			<g>
				<path class="st7" d="M264.9,280.3c-1.3,1.8-1.2,4.1-1.1,6.3c0.1,1,0.2,2.1,0.8,2.9"/>
			</g>
			<g>
				<path class="st7" d="M261.7,283.9c0.1,1.3,0.1,2.5,0,3.8c-0.1,0.9-0.2,1.9,0.5,2.6"/>
			</g>
			<g>
				<path class="st7" d="M288.5,279.3c0.1,0.2,0.3,0.5,0.6,0.6c0.1,0.1,0.3,0.1,0.4,0.2c0.6,0.2,1.2,0.2,1.9,0.1"/>
			</g>
			<g>
				<path class="st7" d="M287.7,279.6c0.4,0.7,1.1,1.2,1.8,1.5s1.6,0.4,2.3,0.2"/>
			</g>
			<g>
				<path class="st7" d="M285.9,280.5c0.4,0.2,0.6,0.6,0.9,0.9c1,1.2,2.8,1.5,4.2,1.1"/>
			</g>
			<g>
				<path class="st7" d="M284.8,281c0.1,0.7,0.5,1.3,1,1.7c0.3,0.3,0.7,0.6,1.1,0.7"/>
			</g>
			<g>
				<path class="st7" d="M283.5,281.7c0.3,0.6,0.8,1.1,1.3,1.6c0.1,0.1,0.2,0.2,0.3,0.3c0.1,0.1,0.3,0.1,0.4,0.1
					c0.3,0.1,0.5,0.2,0.8,0.2"/>
			</g>
			<g>
				<path class="st7" d="M281.6,282.8c0.3,0.6,0.7,1.2,1.2,1.7c0.3,0.3,0.6,0.5,0.9,0.7c0.7,0.4,1.3,0.9,2,1.2
					c0.7,0.3,1.5,0.5,2.3,0.4"/>
			</g>
			<g>
				<path class="st7" d="M280.2,283.4c0.3,0.7,0.7,1.4,1.3,2c1,1.1,2.4,1.7,3.7,2.4c0.6,0.3,1.3,0.6,2,0.5"/>
			</g>
			<g>
				<path class="st7" d="M278.4,284.3c0.3,1.5,1.5,2.7,2.6,3.8c0.6,0.5,1.1,1,1.8,1.4c0.7,0.4,1.5,0.6,2.2,0.4"/>
			</g>
			<g>
				<path class="st7" d="M275.8,285.2c0.4,1.8,1.3,3.4,2.7,4.6c1.4,1.2,3.2,1.9,5,1.9"/>
			</g>
			<g>
				<path class="st7" d="M273.6,286.2c0.1,0.6,0.1,1.2,0.3,1.7c0.2,0.5,0.4,1,0.7,1.5c0.7,1.1,1.6,2.2,2.7,2.9
					c1.1,0.8,2.4,1.3,3.7,1.4"/>
			</g>
			<g>
				<path class="st7" d="M271.3,287.4c0.2,2,1.4,3.8,2.7,5.3c0.9,1.1,2,2.1,3.3,2.5"/>
			</g>
			<g>
				<path class="st7" d="M268.7,288.3c-0.1,0.2,0,0.4,0,0.7c0.6,2.9,2.8,5.3,5.4,6.7"/>
			</g>
			<g>
				<path class="st7" d="M267,289.1c0.1,2.9,1.9,5.7,4.5,6.9"/>
			</g>
			<g>
				<path class="st7" d="M264.9,290c0.1,1.9,1.1,3.7,2.6,4.8"/>
			</g>
			<g>
				<path class="st7" d="M262.8,291.1c0,0.8,0.5,1.5,1,2.1c0.4,0.6,0.9,1.1,1.4,1.6"/>
			</g>
		</g>
	</g>
	<g>
		<path class="st11" d="M199.9,208.3h-9c-1.1,4.1-2.7,8.7-4.7,13.8c-2,5.1-4,9.4-6,13.1v21.7h-25.1c2.4-3.1,5.6-8.1,9.6-15.1
			c4-7,7.9-14.8,11.6-23.5c3.8-8.7,6.6-16.9,8.4-24.6h-20.3c-5.8,23.3-14.7,44.3-26.4,63.2V273h42.2v21h19.7v-21h11.8v-16.1h-11.8
			V208.3z"/>
		<path class="st11" d="M273.5,198.3c-4.9-3.1-11.1-4.6-18.6-4.6c-7.5,0-13.7,1.5-18.6,4.5c-4.9,3-8.7,8.3-11.3,15.7
			c-2.6,7.5-4,17.7-4,30.7c0,13,1.3,23.3,4,30.7c2.6,7.5,6.4,12.7,11.3,15.7c4.9,3,11.1,4.5,18.6,4.5c7.5,0,13.7-1.5,18.6-4.6
			c4.9-3.1,8.7-8.3,11.3-15.7c2.6-7.4,4-17.6,4-30.7c0-13-1.3-23.2-4-30.7C282.2,206.6,278.4,201.3,273.5,198.3z M268.5,249.7
			c0,7.4-0.4,13.2-1.1,17.4c-0.7,4.2-2.1,7.4-4,9.4c-2,2.1-4.8,3.1-8.5,3.1s-6.6-1-8.5-3.1c-2-2.1-3.3-5.2-4-9.4
			c-0.7-4.2-1.1-10-1.1-17.4v-10.1c0-7.4,0.4-13.2,1.1-17.4c0.7-4.2,2.1-7.3,4-9.4c2-2.1,4.8-3.1,8.5-3.1s6.6,1,8.5,3.1
			c2,2.1,3.3,5.2,4,9.4c0.7,4.2,1.1,10,1.1,17.4V249.7z"/>
		<path class="st11" d="M359.6,256.9v-48.6h-9c-1.1,4.1-2.7,8.7-4.7,13.8c-2,5.1-4,9.4-6,13.1v21.7h-25.1c2.4-3.1,5.6-8.1,9.6-15.1
			c4-7,7.9-14.8,11.6-23.5c3.8-8.7,6.6-16.9,8.4-24.6h-20.3c-5.8,23.3-14.7,44.3-26.4,63.2V273h42.2v21h19.7v-21h11.8v-16.1H359.6z"
			/>
	</g>
	<path class="st7" d="M308.1,386.5c0,0,13.4-9.3,18.4-2.4C326.5,384.1,328,388.5,308.1,386.5z"/>
	<path class="st7" d="M189.5,386.5c0,0-13.4-9.3-18.4-2.4C171,384.1,169.5,388.5,189.5,386.5z"/>
	<g>
		<path class="st13" d="M336.3,293.5c0,0,1-33.9,38.7-26.9c0,0-32.5-1.2-34.8,27.3L336.3,293.5z"/>
		<path class="st13" d="M345.1,287.7c0,0,17.8-28.9,46.9-4.1c0,0-27.6-17.3-43.8,6.3L345.1,287.7z"/>
		<path class="st7" d="M333,294.8c0,0,24.6-17.1,33.7-4.5C366.6,290.3,369.4,298.5,333,294.8z"/>
		<path class="st6" d="M333.8,295.3c0,0-6.7-16.7,1.9-20.3C335.7,275,340.9,274.5,333.8,295.3z"/>
	</g>
	<g>
		<path class="st13" d="M172,292.8c0,0-1.3-45.2-51.6-35.9c0,0,43.4-1.6,46.4,36.5L172,292.8z"/>
		<path class="st7" d="M175.4,294.3c0,0-24.6-17.1-33.7-4.5C141.7,289.8,138.9,298,175.4,294.3z"/>
	</g>
	<g>
		<path class="st14" d="M164.1,78c0,1.1-0.9,2-2,2s-2-0.9-2-2s0.9-2,2-2C163.2,76,164.1,76.9,164.1,78z"/>
		<path class="st14" d="M175.9,95.7c0,0.7-0.6,1.3-1.3,1.3s-1.3-0.6-1.3-1.3c0-0.7,0.6-1.3,1.3-1.3
			C175.3,94.3,175.9,94.9,175.9,95.7z"/>
		<circle class="st14" cx="304.5" cy="359" r="2"/>
		<circle class="st14" cx="145.5" cy="368.5" r="2"/>
		<path class="st14" d="M398.1,296.8c0,1.1-0.9,2-2,2s-2-0.9-2-2s0.9-2,2-2S398.1,295.7,398.1,296.8z"/>
		<path class="st14" d="M424.3,126.8c0,1.1-0.9,2-2,2s-2-0.9-2-2s0.9-2,2-2S424.3,125.7,424.3,126.8z"/>
		<path class="st14" d="M285.3,63.1c0,1.1-0.9,2-2,2s-2-0.9-2-2s0.9-2,2-2S285.3,62,285.3,63.1z"/>
		<path class="st14" d="M161,180.5c0,1.1-0.9,2-2,2s-2-0.9-2-2s0.9-2,2-2S161,179.4,161,180.5z"/>
		<path class="st14" d="M320.3,161.8c0,1.1-0.9,2-2,2s-2-0.9-2-2s0.9-2,2-2S320.3,160.7,320.3,161.8z"/>
		<path class="st14" d="M158.9,281.7c0,0.7-0.6,1.3-1.3,1.3s-1.3-0.6-1.3-1.3c0-0.7,0.6-1.3,1.3-1.3
			C158.3,280.3,158.9,280.9,158.9,281.7z"/>
		<path class="st14" d="M327.8,337c0,0.7-0.6,1.3-1.3,1.3c-0.7,0-1.3-0.6-1.3-1.3c0-0.7,0.6-1.3,1.3-1.3
			C327.2,335.7,327.8,336.3,327.8,337z"/>
		<path class="st14" d="M315.4,366.5c0,0.7-0.6,1.3-1.3,1.3c-0.7,0-1.3-0.6-1.3-1.3c0-0.7,0.6-1.3,1.3-1.3S315.4,365.8,315.4,366.5z
			"/>
		<path class="st14" d="M177,339.7c0,0.7-0.6,1.3-1.3,1.3s-1.3-0.6-1.3-1.3c0-0.7,0.6-1.3,1.3-1.3C176.4,338.4,177,339,177,339.7z"
			/>
		<path class="st14" d="M409.9,179.2c0,0.7-0.6,1.3-1.3,1.3c-0.7,0-1.3-0.6-1.3-1.3s0.6-1.3,1.3-1.3
			C409.3,177.8,409.9,178.4,409.9,179.2z"/>
	</g>
</g>
<g id="DESIGNED_BY_FREEPIK">
</g>
</svg>
